<?xml version="1.0" encoding="UTF-8" standalone="no"?>
<!DOCTYPE svg PUBLIC "-//W3C//DTD SVG 1.1//EN"
 "http://www.w3.org/Graphics/SVG/1.1/DTD/svg11.dtd">
<!-- Generated by graphviz version 2.38.0 (20140413.2041)
 -->
<!-- Title: G Pages: 1 -->
<svg width="243pt" height="235pt"
 viewBox="0.00 0.00 243.39 234.72" xmlns="http://www.w3.org/2000/svg" xmlns:xlink="http://www.w3.org/1999/xlink">
<g id="graph0" class="graph" transform="scale(1 1) rotate(0) translate(4 230.72)">
<title>G</title>
<polygon fill="white" stroke="none" points="-4,4 -4,-230.72 239.386,-230.72 239.386,4 -4,4"/>
<!-- 1 -->
<g id="node1" class="node"><title>1</title>
<ellipse fill="none" stroke="black" cx="139.103" cy="-18" rx="27" ry="18"/>
<text text-anchor="middle" x="139.103" y="-14.3" font-family="Times New Roman,serif" font-size="14.00">1</text>
</g>
<!-- 2 -->
<g id="node2" class="node"><title>2</title>
<ellipse fill="none" stroke="black" cx="27" cy="-54.4243" rx="27" ry="18"/>
<text text-anchor="middle" x="27" y="-50.7243" font-family="Times New Roman,serif" font-size="14.00">2</text>
</g>
<!-- 1&#45;&gt;2 -->
<g id="edge1" class="edge"><title>1&#45;&gt;2</title>
<path fill="none" stroke="black" d="M114.778,-25.9035C99.0596,-31.0108 78.3778,-37.7307 61.0377,-43.3648"/>
<polygon fill="black" stroke="black" points="59.7061,-40.1173 51.2771,-46.5362 61.8693,-46.7747 59.7061,-40.1173"/>
</g>
<!-- 3 -->
<g id="node3" class="node"><title>3</title>
<ellipse fill="none" stroke="black" cx="27" cy="-172.296" rx="27" ry="18"/>
<text text-anchor="middle" x="27" y="-168.596" font-family="Times New Roman,serif" font-size="14.00">3</text>
</g>
<!-- 2&#45;&gt;3 -->
<g id="edge2" class="edge"><title>2&#45;&gt;3</title>
<path fill="none" stroke="black" d="M27,-72.5835C27,-91.5634 27,-121.61 27,-143.764"/>
<polygon fill="black" stroke="black" points="23.5001,-143.922 27,-153.922 30.5001,-143.922 23.5001,-143.922"/>
</g>
<!-- 4 -->
<g id="node4" class="node"><title>4</title>
<ellipse fill="none" stroke="black" cx="139.103" cy="-208.72" rx="27" ry="18"/>
<text text-anchor="middle" x="139.103" y="-205.02" font-family="Times New Roman,serif" font-size="14.00">4</text>
</g>
<!-- 3&#45;&gt;4 -->
<g id="edge3" class="edge"><title>3&#45;&gt;4</title>
<path fill="none" stroke="black" d="M51.3246,-180.2C67.043,-185.307 87.7248,-192.027 105.065,-197.661"/>
<polygon fill="black" stroke="black" points="104.233,-201.071 114.825,-200.832 106.396,-194.413 104.233,-201.071"/>
</g>
<!-- 5 -->
<g id="node5" class="node"><title>5</title>
<ellipse fill="none" stroke="black" cx="208.386" cy="-113.36" rx="27" ry="18"/>
<text text-anchor="middle" x="208.386" y="-109.66" font-family="Times New Roman,serif" font-size="14.00">5</text>
</g>
<!-- 4&#45;&gt;5 -->
<g id="edge4" class="edge"><title>4&#45;&gt;5</title>
<path fill="none" stroke="black" d="M151.171,-192.11C162,-177.205 178.041,-155.126 190.385,-138.136"/>
<polygon fill="black" stroke="black" points="193.41,-139.928 196.456,-129.78 187.746,-135.813 193.41,-139.928"/>
</g>
<!-- 5&#45;&gt;1 -->
<g id="edge5" class="edge"><title>5&#45;&gt;1</title>
<path fill="none" stroke="black" d="M196.318,-96.7497C185.489,-81.845 169.447,-59.766 157.103,-42.776"/>
<polygon fill="black" stroke="black" points="159.742,-40.4531 151.033,-34.4201 154.079,-44.5676 159.742,-40.4531"/>
</g>
</g>
</svg>
